<svg t="1730180275269" class="icon" viewBox="0 0 1024 1024" version="1.1" xmlns="http://www.w3.org/2000/svg" p-id="4373" width="200" height="200"><path d="M389.7 588.1h259.7c49.2 0 89-39.8 89-89V361.7c0-20.8-16.9-37.7-37.7-37.7S663 340.9 663 361.7v115.9c0 19.3-15.7 35-35 35H395l70.9-70.9c14.7-14.7 14.7-38.6 0-53.4-14.7-14.7-38.6-14.7-53.3 0L301.3 499.7 279 521.9c-17.2 17.2-17.2 45 0 62.2l133.5 133.5c14.7 14.7 38.6 14.7 53.3 0 14.7-14.7 14.7-38.6 0-53.3l-76.1-76.2zM512 927.6c-229.2 0-415-185.8-415-415s185.8-415 415-415 415 185.8 415 415-185.8 415-415 415z" fill="#CECECE" p-id="4374"></path></svg>